<svg xmlns="http://www.w3.org/2000/svg" viewBox="0 0 960 410"><rect width="960" height="410" rx="22" fill="#101c23"/><g font-family="system-ui,sans-serif" text-anchor="middle" fill="#f2f7f5"><text x="480" y="42" font-size="25" font-weight="800">Feature → Runtime Mechanism → Host CPU Workload</text><rect x="45" y="90" width="190" height="80" rx="12" fill="#14242c" stroke="#5aa7ff"/><text x="140" y="125" font-size="19" font-weight="700">Control</text><text x="140" y="151" font-size="14" fill="#a2b2b9">Loop · Recovery</text><path d="M140 175V235" stroke="#5aa7ff" stroke-width="4"/><rect x="275" y="90" width="190" height="80" rx="12" fill="#14242c" stroke="#46c8b3"/><text x="370" y="125" font-size="19" font-weight="700">State</text><text x="370" y="151" font-size="14" fill="#a2b2b9">Event · Context</text><path d="M370 175V235" stroke="#46c8b3" stroke-width="4"/><rect x="505" y="90" width="190" height="80" rx="12" fill="#14242c" stroke="#a98bff"/><text x="600" y="125" font-size="19" font-weight="700">Execution</text><text x="600" y="151" font-size="14" fill="#a2b2b9">Tool · Process</text><path d="M600 175V235" stroke="#a98bff" stroke-width="4"/><rect x="735" y="90" width="190" height="80" rx="12" fill="#14242c" stroke="#f0b75a"/><text x="830" y="125" font-size="19" font-weight="700">Scale</text><text x="830" y="151" font-size="14" fill="#a2b2b9">Multi-Agent</text><path d="M830 175V235" stroke="#f0b75a" stroke-width="4"/><rect x="45" y="235" width="190" height="105" rx="12" fill="#14242c" stroke="#5aa7ff"/><text x="140" y="275" font-size="17">C1</text><text x="140" y="306" font-size="15" fill="#a2b2b9">Agent steps</text><rect x="275" y="235" width="190" height="105" rx="12" fill="#14242c" stroke="#46c8b3"/><text x="370" y="275" font-size="17">C2 · C3 · C8</text><text x="370" y="306" font-size="15" fill="#a2b2b9">state surface</text><rect x="505" y="235" width="190" height="105" rx="12" fill="#14242c" stroke="#a98bff"/><text x="600" y="275" font-size="17">C4 · C5 · C6</text><text x="600" y="306" font-size="15" fill="#a2b2b9">boundaries</text><rect x="735" y="235" width="190" height="105" rx="12" fill="#14242c" stroke="#f0b75a"/><text x="830" y="275" font-size="17">C7</text><text x="830" y="306" font-size="15" fill="#a2b2b9">density</text></g></svg>
